<svg id="Layer_1" data-name="Layer 1" xmlns="http://www.w3.org/2000/svg" viewBox="0 0 764.67 726.42"><title>star</title><g id="FcVmB7.tif"><path  d="M1066.77,297.73c-7.73,7.73-14.4,15-21.69,21.57-15.91,14.37-30.18,30.4-45.95,44.86-14.94,13.69-28.44,28.82-43.4,42.45s-28.67,29.08-43.81,42.74c-12.82,11.56-24.3,24.43-37,36,.45.54,1.09,1,1,1.27-.64,3.32.7,6.46,1.24,9.57.77,4.43.93,9,2.68,13.34.79,2-.37,4.52,1.13,6.53-.74,3.15.69,6.1,1.19,9.06.75,4.44.95,9,2.66,13.35.79,2-.46,4.54,1.15,6.52-.76,3.15.7,6.1,1.19,9.06.72,4.44,1,9,2.62,13.36.8,2.19-.33,4.85,1.19,7-.07,5.15,1.36,10.14,2.21,15.13.76,4.42,1,9.05,2.79,13.3-.76,3.15,1.51,6,1,9.08-.31,1.74,1.53,2.77,1.11,4.61-.31,1.32.4,2.76.71,4.11.52,2.27.77,4.69,1.12,7.06.68,4.71,1.81,9.36,2.28,14.13a23.68,23.68,0,0,0,.95,6c.8,2.09.25,4.29,1,6.1,1.72,4.32,1.07,9.07,2.89,13.3-.64,3.14.66,6.14,1.22,9,.86,4.43.58,9.16,2.78,13.3-.53,2.81.6,5.41,1,8.08.53,3.25.67,6.57,1.82,9.74a9.13,9.13,0,0,1,.1,3.94c-.14,1.39,1.27,2.13,1.1,3.59-.31,2.73,1.66,5.26.94,8.08,2.16,2.17-.2,5.52,2,7.67-.73,3.15,1.16,6,1.06,9.09-.07,2.31,1.74,4.51.48,7.36-3.14-1.52-6.32-3-9.42-4.58-9.75-5-19.6-9.89-29.17-15.26-7.56-4.24-15.54-7.65-23-12-5.63-3.27-11.53-6-17.25-9.09-6.79-3.69-13.82-6.93-20.56-10.7-7-3.93-14.32-7.34-21.32-11.3-6.73-3.81-13.91-6.78-20.56-10.67-7-4.08-14.42-7.17-21.36-11.25-6.14-3.61-12.74-6.34-18.88-9.92-6.84-4-14.14-7-21-11-6.31-3.65-13-6.57-19.28-10.2a142.74,142.74,0,0,0-13.53-7c-4.63,2.42-9.65,5.06-14.69,7.67-7.13,3.7-14.38,7.18-21.38,11.11-5.81,3.26-12,5.79-17.68,9.19-6.54,3.91-13.51,6.93-20.1,10.7-5.36,3.08-11.07,5.53-16.4,8.66-5.75,3.38-11.86,6-17.61,9.39s-12.26,6-18.1,9.39c-6.56,3.86-13.56,6.82-20.1,10.64-5.76,3.37-12,5.86-17.68,9.19-6.7,3.93-13.89,6.88-20.5,10.87-5.46,3.3-11.34,5.71-16.83,8.91-7,4-14.4,7.18-21.35,11.17-4.32,2.48-8.95,4.27-13.38,7.4.57-4.36.69-8.24,1.66-11.89,1.69-6.4,1.43-13.16,3.91-19.37-.57-2.81.84-5.37,1-8.09.1-1.91,0-3.75.92-5.63.73-1.48-.68-3.62,1-5.05-.6-2.81,1.6-5.33,1-8.06-.42-1.84,1.34-2.87,1.12-4.61a11.46,11.46,0,0,1,.75-4.63,37.24,37.24,0,0,0,1-7,129.14,129.14,0,0,1,2.36-14.12c1-4.75.93-9.73,2.79-14.3-.6-3.13.59-6.15,1.2-9,.93-4.42.88-9,2.67-13.36.8-1.92.72-4.41.9-6.55.25-3.06,1.69-5.94,1.24-9.07-.24-1.63,1.65-2.86,1-4.57-.77-2,1-3.3,1.06-5.09a9.56,9.56,0,0,1,.76-4.69c.92-1.81-.27-4.46,1.19-6.49-.73-3.14,1.6-6,1-9.07-.32-1.5,1.31-2.14,1.11-3.61a6.47,6.47,0,0,1,.66-3.69c.95-2.09-.25-4.81,1.27-7-.07-5.15,1.42-10.12,2.2-15.14.67-4.42.86-9.08,2.8-13.29-.76-3.15,1.51-6,1-9.08-.31-1.74,1.53-2.77,1.11-4.61a7.25,7.25,0,0,1,.75-4.13c.75-2,.59-4.34,1-6.55.63-3.58,1.2-7.13,2.09-10.67.6-2.43.18-5,1-7.6.61-2.05.13-4.45,1.31-6.33-.57-1.56-1.77-2.25-2.67-3.16-8.82-8.87-17.32-18.08-26.59-26.45-13.8-12.46-26.13-26.43-39.91-38.86-11.09-10-21.05-21.13-32.05-31.19-14.7-13.44-28.14-28.18-42.79-41.63-13.46-12.36-25.91-25.69-39-38.33-2.59-2.49-6-4-8-7.13,2.43-.93,5-1.8,7.76-1.41,1.85.26,3.18-1.34,5.1-1.11,1.5.19,3.33.77,4.61-.89.12-.16.64-.06,1,0,3.94.59,7.62-1.72,11.59-1,1.62.29,2.85-1.59,4.58-1,1.9.67,3.35-.85,5.08-1,1.56-.15,3.31.68,4.66-.86.23-.26,1-.19,1.43-.1,4,.71,7.81-.64,11.55-1.26,5.08-.84,10.34-.87,15.34-2.63,2.3-.81,5.08-.7,7.56-.9,3.55-.28,6.95-1.76,10.57-1.23,1.81.26,3.18-1.3,5.09-1.08a8.38,8.38,0,0,0,4.67-.73c1.85-.86,4.46.2,6.49-1.19,3.63.75,7-1.48,10.58-1,1.86.26,3.18-1.37,5.11-1.11,1.49.21,3.25.68,4.65-.8.32-.34,1.26-.09,1.92-.11,1.91-.07,3.75.11,5.64-.9,1.6-.86,3.9.76,5.58-1.05.31-.34,1.29-.13,1.95,0,2.14.3,4.08-.46,6.1-1s4,0,6.15-.86,5.05-.77,7.53-1c3.55-.26,7-1.83,10.56-1.2,1.74.31,2.77-1.53,4.61-1.11,1.32.3,2.94.54,4.11-.89.2-.24,1,0,1.45,0a93.17,93.17,0,0,0,12.71-1.86,62.11,62.11,0,0,1,8.56-1c5.61-.44,11-2.61,16.66-2.15,2-1.58,4.53-.41,6.55-1.12,2.23-.79,4.51-.4,6.6-1,5.52-1.49,11.36-1,16.78-2.91,3.94.58,7.6-2.08,11.21-.87a10.25,10.25,0,0,0,3.53-4.35q8-16.18,16.16-32.32c1.66-3.3,3.63-6.56,4.92-9.94,3.69-9.71,9.06-18.57,13.33-28s9.41-18.09,13.83-27.28c2.33-4.86,4.7-9.71,7-14.61s4.72-9.71,7.11-14.55,4.68-9.4,7-14.11,4.67-9.73,7.09-14.56,5.17-9.52,7.37-14.45c8.18-18.33,17.91-35.9,26.46-54,1.72-3.64,4.09-6.93,5.41-10.79,2.08.88,2.85,2.9,3.6,4.67,1.7,4,4.57,7.42,5.23,11.84,3.58,3.13,3,8.69,6.72,11.72.91,5.15,4,9.37,6.21,13.91,9.53,19.57,19.49,38.93,29.09,58.47,3.05,6.22,6.08,12.46,9,18.78s6.31,12.38,9.47,18.58q4.64,9.07,9.19,18.19c3.1,6.21,6.14,12.46,9.2,18.69,1.77,3.6,3.57,7.19,5.29,10.81,1.12,2.36,1.88,4.93,3.24,7.15,4.07,6.61,6.57,14,10.39,20.72,3.71,6.57,6.89,13.46,10,20.34,1.57,3.45,3.77,5.51,7.59,4.91,2.11-.33,3.65,1.1,5.6,1.11s4-.67,5.59,1c3.3-.72,6.33,1.6,9.57.95,2-.39,3.2,1.31,5.1,1.14,1.67-.15,3.63-.84,5.13.86.22.25,1,.12,1.45,0,4-.71,7.64,1.63,11.59,1,4.89,2,10.28,1.28,15.29,2.88,2.35.75,5.09.69,7.57.88,3.55.28,7,1.74,10.57,1.25,1.78-.24,3.2,1.4,5.09,1s3.73.49,5.59.92c1.68.38,3.37.3,5.13.86a30.94,30.94,0,0,0,8,1c3.92.15,7.64,1.8,11.57,1.23,1.51-.22,2.4,1.48,4.11,1.09,1.31-.31,2.92-.55,4.12.86.29.33,1.29.13,1.94,0,2.15-.31,4.08.48,6.1,1s4,0,6.15.86,5,.77,7.53,1c3.55.27,7,1.83,10.56,1.2,1.74-.31,2.78,1.53,4.61,1.11,1.33-.3,3-.53,4.1.9.13.16.64.06,1,0,3.94-.54,7.63,1.73,11.59,1,3,1.93,6.54.35,9.73,1.86,2,1,4.85-.54,7,1.14,3.31-.73,6.32,1.7,9.58,1,1.94-.44,3.15,1.45,5.11,1.13,1.66-.27,3.58-.62,5.11.87.25.25,1,0,1.46.05,2.21.24,4.38-.34,6.66.84,1.68.88,4.18-.38,6,1.15,3.46-.62,6.65,1.63,10.08,1,2-.39,3.6,1.19,5.6,1.08,1.71-.09,3.64-.67,5.08.94C1057.74,296.27,1061.56,298.66,1066.77,297.73Z" transform="translate(-302.1 -22.15)"/></g></svg>
